<?xml version="1.0" encoding="utf-8"?>
<!-- Generator: Adobe Illustrator 27.5.0, SVG Export Plug-In . SVG Version: 6.00 Build 0)  -->
<svg version="1.1" xmlns="http://www.w3.org/2000/svg" xmlns:xlink="http://www.w3.org/1999/xlink" x="0px" y="0px"
	 viewBox="0 0 2200 2200" style="enable-background:new 0 0 2200 2200;" xml:space="preserve">
<g id="background">
	<rect style="fill:#FFFFFF;" width="2200" height="2200"/>
</g>
<g id="Objects">
	<g>
		<g>
			<path style="fill:#202F4C;" d="M1100,1803.664l-9.647-2.027c-7.096-1.49-175.733-38.14-345.082-180.01
				c-99.415-83.284-178.603-185.753-235.365-304.559c-70.349-147.247-106.02-319.738-106.02-512.679V445.992l21.732-13.829
				c3.142-1.999,78.338-49.518,198.85-97.183c70.611-27.928,142.41-50.192,213.402-66.174
				c89.165-20.073,177.358-30.251,262.13-30.251s172.965,10.178,262.13,30.251c70.992,15.982,142.791,38.246,213.402,66.174
				c120.512,47.665,195.708,95.183,198.85,97.183l21.732,13.829v358.397c0,192.942-35.671,365.432-106.02,512.679
				c-56.762,118.806-135.951,221.274-235.365,304.559c-169.349,141.87-337.986,178.52-345.082,180.01L1100,1803.664z
				 M497.734,498.546v305.843c0,177.663,32.166,335.659,95.604,469.599c50.382,106.373,120.658,198.189,208.876,272.898
				c78.986,66.891,158.195,107.574,210.734,129.924c40.588,17.266,72.011,26.581,87.052,30.582
				c15.042-4,46.464-13.316,87.052-30.582c52.539-22.349,131.748-63.033,210.734-129.924
				c88.218-74.71,158.494-166.526,208.876-272.898c63.438-133.94,95.604-291.935,95.604-469.599V498.546
				c-29.364-16.615-86.92-47.038-163.404-77.145c-65.885-25.934-132.755-46.577-198.753-61.354
				c-81.922-18.343-162.706-27.643-240.108-27.643s-158.187,9.3-240.108,27.643c-65.998,14.777-132.868,35.419-198.753,61.354
				C584.655,451.508,527.098,481.931,497.734,498.546z"/>
			<path style="fill:#0062FF;" d="M1527.219,457.158c-64.352-25.442-129.605-45.695-193.948-60.176
				c-79.696-17.944-158.173-27.038-233.271-27.038s-153.574,9.094-233.271,27.038c-64.343,14.481-129.596,34.733-193.939,60.176
				c-59.556,23.556-106.894,47.084-137.517,63.536v283.696c0,173.179,31.355,326.613,93.192,456.039
				c23.678,49.571,51.898,95.801,84.436,138.408c4.458-101.009,45.404-177.581,85.787-207.847
				c85.768-64.324,196.088-92.554,196.088-92.554l51.101,123.242l39.998-75.764l-22.13-35.118c0.46,0.272,15.57,5.715,36.254,5.715
				s35.794-5.443,36.254-5.715l-22.13,35.118l39.998,75.764l51.101-123.242c0,0,110.319,28.23,196.088,92.554
				c40.383,30.266,81.329,106.838,85.787,207.847c32.537-42.607,60.758-88.837,84.445-138.408
				c61.828-129.427,93.183-282.86,93.183-456.039V520.693C1634.103,504.242,1586.766,480.714,1527.219,457.158z M1291.836,905.886
				c-10.933,103.337-100.24,183.934-191.836,183.934c-88.068,0-180.434-80.588-191.789-183.897
				c-24.288-15.936-44.362-73.737-44.362-89.992c0-18.929,15.335-34.264,34.255-34.264c3.097,0,6.091,0.413,8.944,1.182v-26.634
				c0-113.313,61.612-187.059,192.953-187.059s192.953,73.746,192.953,187.059v26.634c2.853-0.77,5.847-1.182,8.944-1.182
				c18.92,0,34.255,15.335,34.255,34.264C1336.152,832.177,1316.096,889.913,1291.836,905.886z"/>
		</g>
		<ellipse style="fill:#D6DCE5;" cx="1100" cy="1938.406" rx="612.323" ry="23.038"/>
	</g>
</g>
</svg>
